STARTFONT 2.1
FONT hollowsquares
COPYRIGHT Copyright (C) 2023 by Toitware ApS.  Use of this source code is governed by an MIT-style license that can be found in the LICENSE file.

COMMENT A font with crosses of different sizes.
COMMENT Only (symmetric) crosses with an odd number of pixels are present.
COMMENT The character "1" is replaced by a 1x1 pixel dot.
COMMENT The character "3" is replaced by a 3x3 pixel cross.
COMMENT The character "5" is replaced by a 5x5 pixel cross.
COMMENT Larger crosses are placed in the following positions:
COMMENT ":"  10x10
COMMENT ";"  11x11
COMMENT "<"  12x12
COMMENT "="  13x13
COMMENT ">"  14x14
COMMENT "?"  15x15
COMMENT "@"  16x16
COMMENT "A"  17x17
COMMENT "B"  18x18
COMMENT "C"  19x19
COMMENT ...
COMMENT "P"  32x32

STARTCHAR 1x1
ENCODING 49
DWIDTH 1 0
BBX 1 1 0 0
BITMAP
80
ENDCHAR

STARTCHAR 3x3
ENCODING 51
DWIDTH 3 0
BBX 3 3 -1 -1
BITMAP
40
E0
40
ENDCHAR

STARTCHAR 5x5
ENCODING 53
DWIDTH 5 0
BBX 5 5 -2 -2
BITMAP
20
20
F8
20
20
ENDCHAR

STARTCHAR 7x7
ENCODING 55
DWIDTH 7 0
BBX 7 7 -3 -3
BITMAP
10
10
10
FE
10
10
10
ENDCHAR

STARTCHAR 9x9
ENCODING 57
DWIDTH 9 0
BBX 9 9 -4 -4
BITMAP
0800
0800
0800
0800
FF80
0800
0800
0800
0800
ENDCHAR

STARTCHAR 11x11
ENCODING 59
DWIDTH 11 0
BBX 11 11 -5 -5
BITMAP
0400
0400
0400
0400
0400
FFE0
0400
0400
0400
0400
0400
ENDCHAR

STARTCHAR 13x13
ENCODING 61
DWIDTH 13 0
BBX 13 13 -6 -6
BITMAP
0200
0200
0200
0200
0200
0200
FFF8
0200
0200
0200
0200
0200
0200
ENDCHAR

STARTCHAR 15x15
ENCODING 63
DWIDTH 15 0
BBX 15 15 -7 -7
BITMAP
0100
0100
0100
0100
0100
0100
0100
FFFE
0100
0100
0100
0100
0100
0100
0100
ENDCHAR

STARTCHAR 17x17
ENCODING 65
DWIDTH 17 0
BBX 17 17 -8 -8
BITMAP
008000
008000
008000
008000
008000
008000
008000
008000
FFFF80
008000
008000
008000
008000
008000
008000
008000
008000
ENDCHAR

STARTCHAR 19x19
ENCODING 67
DWIDTH 19 0
BBX 19 19 -9 -9
BITMAP
004000
004000
004000
004000
004000
004000
004000
004000
004000
FFFFE0
004000
004000
004000
004000
004000
004000
004000
004000
004000
ENDCHAR

STARTCHAR 21x21
ENCODING 69
DWIDTH 21 0
BBX 21 21 -10 -10
BITMAP
002000
002000
002000
002000
002000
002000
002000
002000
002000
002000
FFFFF8
002000
002000
002000
002000
002000
002000
002000
002000
002000
002000
ENDCHAR


STARTCHAR 23x23
ENCODING 71
DWIDTH 23 0
BBX 23 23 -11 -11
BITMAP
001000
001000
001000
001000
001000
001000
001000
001000
001000
001000
001000
FFFFFE
001000
001000
001000
001000
001000
001000
001000
001000
001000
001000
001000
ENDCHAR

STARTCHAR 25x25
ENCODING 73
DWIDTH 25 0
BBX 25 25 -12 -12
BITMAP
00080000
00080000
00080000
00080000
00080000
00080000
00080000
00080000
00080000
00080000
00080000
00000000
FFFFFF80
00080000
00080000
00080000
00080000
00080000
00080000
00080000
00080000
00080000
00080000
00080000
00080000
ENDCHAR

STARTCHAR 27x27
ENCODING 75
DWIDTH 27 0
BBX 27 27 -13 -13
BITMAP
00040000
00040000
00040000
00040000
00040000
00040000
00040000
00040000
00040000
00040000
00040000
00040000
00040000
FFFFFFE0
00040000
00040000
00040000
00040000
00040000
00040000
00040000
00040000
00040000
00040000
00040000
00040000
00040000
ENDCHAR

STARTCHAR 29x29
ENCODING 77
DWIDTH 29 0
BBX 29 29 -14 -14
BITMAP
00020000
00020000
00020000
00020000
00020000
00020000
00020000
00020000
00020000
00020000
00020000
00020000
00020000
00020000
FFFFFFF8
00020000
00020000
00020000
00020000
00020000
00020000
00020000
00020000
00020000
00020000
00020000
00020000
00020000
00020000
ENDCHAR

STARTCHAR 31x31
ENCODING 79
DWIDTH 31 0
BBX 31 31 -15 -15
BITMAP
00010000
00010000
00010000
00010000
00010000
00010000
00010000
00010000
00010000
00010000
00010000
00010000
00010000
00010000
00010000
FFFFFFFE
00010000
00010000
00010000
00010000
00010000
00010000
00010000
00010000
00010000
00010000
00010000
00010000
00010000
00010000
00010000
ENDCHAR

ENDFONT
