STARTFONT 2.1
FONT hollowsquares
COPYRIGHT Copyright (C) 2023 by Toitware ApS.  Use of this source code is governed by an MIT-style license that can be found in the LICENSE file.

COMMENT A font with hollow squares.
COMMENT The character "1" is replaced by a 1x1 pixel square.
COMMENT The character "2" is replaced by a 2x2 pixel square.
COMMENT Characters with odd numbered widths/heights are centered on
COMMENT   the base coordinate.
COMMENT Larger squares are placed in the following positions:
COMMENT ":"  10x10
COMMENT ";"  11x11
COMMENT "<"  12x12
COMMENT "="  13x13
COMMENT ">"  14x14
COMMENT "?"  15x15
COMMENT "@"  16x16
COMMENT "A"  17x17
COMMENT "B"  18x18
COMMENT "C"  19x19
COMMENT ...
COMMENT "P"  32x32

STARTCHAR 1x1
ENCODING 49
DWIDTH 1 0
BBX 1 1 0 0
BITMAP
80
ENDCHAR

STARTCHAR 2x2
ENCODING 50
DWIDTH 2 0
BBX 2 2 0 0
BITMAP
C0
C0
ENDCHAR

STARTCHAR 3x3
ENCODING 51
DWIDTH 3 0
BBX 3 3 -1 -1
BITMAP
E0
A0
E0
ENDCHAR

STARTCHAR 4x4
ENCODING 52
DWIDTH 4 0
BBX 4 4 -1 -1 
BITMAP
F0
90
90
F0
ENDCHAR

STARTCHAR 5x5
ENCODING 53
DWIDTH 5 0
BBX 5 5 -2 -2
BITMAP
F8
88
88
88
F8
ENDCHAR

STARTCHAR 6x6
ENCODING 54
DWIDTH 6 0
BBX 6 6 -2 -2
BITMAP
FC
84
84
84
84
FC
ENDCHAR

STARTCHAR 7x7
ENCODING 55
DWIDTH 7 0
BBX 7 7 -3 -3
BITMAP
FE
82
82
82
82
82
FE
ENDCHAR

STARTCHAR 8x8
ENCODING 56
DWIDTH 8 0
BBX 8 8 -3 -3
BITMAP
FF
81
81
81
81
81
81
FF
ENDCHAR

STARTCHAR 9x9
ENCODING 57
DWIDTH 9 0
BBX 9 9 -4 -4
BITMAP
FF80
8080
8080
8080
8080
8080
8080
8080
FF80
ENDCHAR

STARTCHAR 10x10
ENCODING 58
DWIDTH 10 0
BBX 10 10 -4 -4
BITMAP
FFC0
8040
8040
8040
8040
8040
8040
8040
8040
FFC0
ENDCHAR

STARTCHAR 11x11
ENCODING 59
DWIDTH 11 0
BBX 11 11 -5 -5
BITMAP
FFE0
8020
8020
8020
8020
8020
8020
8020
8020
8020
FFE0
ENDCHAR

STARTCHAR 12x12
ENCODING 60
DWIDTH 12 0
BBX 12 12 -5 -5
BITMAP
FFF0
8010
8010
8010
8010
8010
8010
8010
8010
8010
8010
FFF0
ENDCHAR

STARTCHAR 13x13
ENCODING 61
DWIDTH 13 0
BBX 13 13 -6 -6
BITMAP
FFF8
8008
8008
8008
8008
8008
8008
8008
8008
8008
8008
8008
FFF8
ENDCHAR

STARTCHAR 14x14
ENCODING 62
DWIDTH 14 0
BBX 14 14 -6 -6
BITMAP
FFFC
8004
8004
8004
8004
8004
8004
8004
8004
8004
8004
8004
8004
FFFC
ENDCHAR

STARTCHAR 15x15
ENCODING 63
DWIDTH 15 0
BBX 15 15 -7 -7
BITMAP
FFFE
8002
8002
8002
8002
8002
8002
8002
8002
8002
8002
8002
8002
8002
FFFE
ENDCHAR

STARTCHAR 16x16
ENCODING 64
DWIDTH 16 0
BBX 16 16 -7 -7
BITMAP
FFFF
8001
8001
8001
8001
8001
8001
8001
8001
8001
8001
8001
8001
8001
8001
FFFF
ENDCHAR

STARTCHAR 17x17
ENCODING 65
DWIDTH 17 0
BBX 17 17 -8 -8
BITMAP
FFFF80
800080
800080
800080
800080
800080
800080
800080
800080
800080
800080
800080
800080
800080
800080
800080
FFFF80
ENDCHAR

STARTCHAR 18x18
ENCODING 66
DWIDTH 18 0
BBX 18 18 -8 -8
BITMAP
FFFFC0
800040
800040
800040
800040
800040
800040
800040
800040
800040
800040
800040
800040
800040
800040
800040
800040
FFFFC0
ENDCHAR

STARTCHAR 19x19
ENCODING 67
DWIDTH 19 0
BBX 19 19 -9 -9
BITMAP
FFFFE0
800020
800020
800020
800020
800020
800020
800020
800020
800020
800020
800020
800020
800020
800020
800020
800020
800020
FFFFE0
ENDCHAR

STARTCHAR 20x20
ENCODING 68
DWIDTH 20 0
BBX 20 20 -9 -9
BITMAP
FFFFF0
800010
800010
800010
800010
800010
800010
800010
800010
800010
800010
800010
800010
800010
800010
800010
800010
800010
800010
FFFFF0
ENDCHAR

STARTCHAR 21x21
ENCODING 69
DWIDTH 21 0
BBX 21 21 -10 -10
BITMAP
FFFFF8
800008
800008
800008
800008
800008
800008
800008
800008
800008
800008
800008
800008
800008
800008
800008
800008
800008
800008
800008
FFFFF8
ENDCHAR

STARTCHAR 22x22
ENCODING 70
DWIDTH 22 0
BBX 22 22 -10 -10
BITMAP
FFFFFC
800004
800004
800004
800004
800004
800004
800004
800004
800004
800004
800004
800004
800004
800004
800004
800004
800004
800004
800004
800004
FFFFFC
ENDCHAR

STARTCHAR 23x23
ENCODING 71
DWIDTH 23 0
BBX 23 23 -11 -11
BITMAP
FFFFFE
800002
800002
800002
800002
800002
800002
800002
800002
800002
800002
800002
800002
800002
800002
800002
800002
800002
800002
800002
800002
800002
FFFFFE
ENDCHAR

STARTCHAR 24x24
ENCODING 72
DWIDTH 24 0
BBX 24 24 -11 -11
BITMAP
FFFFFF
800001
800001
800001
800001
800001
800001
800001
800001
800001
800001
800001
800001
800001
800001
800001
800001
800001
800001
800001
800001
800001
800001
FFFFFF
ENDCHAR

STARTCHAR 25x25
ENCODING 73
DWIDTH 25 0
BBX 25 25 -12 -12
BITMAP
FFFFFF80
80000080
80000080
80000080
80000080
80000080
80000080
80000080
80000080
80000080
80000080
80000080
80000080
80000080
80000080
80000080
80000080
80000080
80000080
80000080
80000080
80000080
80000080
80000080
FFFFFF80
ENDCHAR

STARTCHAR 26x26
ENCODING 74
DWIDTH 26 0
BBX 26 26 -12 -12
BITMAP
FFFFFFC0
80000040
80000040
80000040
80000040
80000040
80000040
80000040
80000040
80000040
80000040
80000040
80000040
80000040
80000040
80000040
80000040
80000040
80000040
80000040
80000040
80000040
80000040
80000040
80000040
FFFFFFC0
ENDCHAR

STARTCHAR 27x27
ENCODING 75
DWIDTH 27 0
BBX 27 27 -13 -13
BITMAP
FFFFFFE0
80000020
80000020
80000020
80000020
80000020
80000020
80000020
80000020
80000020
80000020
80000020
80000020
80000020
80000020
80000020
80000020
80000020
80000020
80000020
80000020
80000020
80000020
80000020
80000020
80000020
FFFFFFE0
ENDCHAR

STARTCHAR 28x28
ENCODING 76
DWIDTH 28 0
BBX 28 28 -13 -13
BITMAP
FFFFFFF0
80000010
80000010
80000010
80000010
80000010
80000010
80000010
80000010
80000010
80000010
80000010
80000010
80000010
80000010
80000010
80000010
80000010
80000010
80000010
80000010
80000010
80000010
80000010
80000010
80000010
80000010
FFFFFFF0
ENDCHAR

STARTCHAR 29x29
ENCODING 77
DWIDTH 29 0
BBX 29 29 -14 -14
BITMAP
FFFFFFF8
80000008
80000008
80000008
80000008
80000008
80000008
80000008
80000008
80000008
80000008
80000008
80000008
80000008
80000008
80000008
80000008
80000008
80000008
80000008
80000008
80000008
80000008
80000008
80000008
80000008
80000008
80000008
FFFFFFF8
ENDCHAR

STARTCHAR 30x30
ENCODING 78
DWIDTH 30 0
BBX 30 30 -14 -14
BITMAP
FFFFFFFC
80000004
80000004
80000004
80000004
80000004
80000004
80000004
80000004
80000004
80000004
80000004
80000004
80000004
80000004
80000004
80000004
80000004
80000004
80000004
80000004
80000004
80000004
80000004
80000004
80000004
80000004
80000004
80000004
FFFFFFFC
ENDCHAR

STARTCHAR 31x31
ENCODING 79
DWIDTH 31 0
BBX 31 31 -15 -15
BITMAP
FFFFFFFE
80000002
80000002
80000002
80000002
80000002
80000002
80000002
80000002
80000002
80000002
80000002
80000002
80000002
80000002
80000002
80000002
80000002
80000002
80000002
80000002
80000002
80000002
80000002
80000002
80000002
80000002
80000002
80000002
80000002
FFFFFFFE
ENDCHAR

STARTCHAR 32x32
ENCODING 80
DWIDTH 32 0
BBX 32 32 -15 -15
BITMAP
FFFFFFFF
80000001
80000001
80000001
80000001
80000001
80000001
80000001
80000001
80000001
80000001
80000001
80000001
80000001
80000001
80000001
80000001
80000001
80000001
80000001
80000001
80000001
80000001
80000001
80000001
80000001
80000001
80000001
80000001
80000001
80000001
FFFFFFFF
ENDCHAR

ENDFONT
